<?xml version="1.0" encoding="UTF-8" standalone="no"?>
<!-- Created with Inkscape (http://www.inkscape.org/) -->

<svg
   xmlns:dc="http://purl.org/dc/elements/1.1/"
   xmlns:cc="http://creativecommons.org/ns#"
   xmlns:rdf="http://www.w3.org/1999/02/22-rdf-syntax-ns#"
   xmlns:svg="http://www.w3.org/2000/svg"
   xmlns="http://www.w3.org/2000/svg"
   xmlns:sodipodi="http://sodipodi.sourceforge.net/DTD/sodipodi-0.dtd"
   xmlns:inkscape="http://www.inkscape.org/namespaces/inkscape"
   id="svg3336"
   version="1.1"
   inkscape:version="0.91 r13725"
   xml:space="preserve"
   width="747.02502"
   height="669.6875"
   viewBox="0 0 747.02502 669.6875"
   sodipodi:docname="logo_edited.svg"><metadata
     id="metadata3342"><rdf:RDF><cc:Work
         rdf:about=""><dc:format>image/svg+xml</dc:format><dc:type
           rdf:resource="http://purl.org/dc/dcmitype/StillImage" /><dc:title></dc:title></cc:Work></rdf:RDF></metadata><defs
     id="defs3340" /><sodipodi:namedview
     pagecolor="#ffffff"
     bordercolor="#666666"
     borderopacity="1"
     objecttolerance="10"
     gridtolerance="10"
     guidetolerance="10"
     inkscape:pageopacity="0"
     inkscape:pageshadow="2"
     inkscape:window-width="1920"
     inkscape:window-height="1018"
     id="namedview3338"
     showgrid="false"
     inkscape:zoom="0.8964385"
     inkscape:cx="709.74112"
     inkscape:cy="506.61305"
     inkscape:window-x="-8"
     inkscape:window-y="-8"
     inkscape:window-maximized="1"
     inkscape:current-layer="g3346" /><g
     id="g3344"
     inkscape:groupmode="layer"
     inkscape:label="ink_ext_XXXXXX"
     transform="matrix(1.25,0,0,-1.25,0,669.6875)"><g
       id="g3346"
       transform="scale(0.1,0.1)"><path
         d="m 4701.95,4332.08 365.79,205.47 505.76,405.64 c 0,0 527.93,-399.25 100.65,-1182.15 0,0 220.04,-715.63 -282.74,-1273.46 0,0 184.28,-892.97 -1112.8,-1112.61 0,0 -765.13,370.4 -772.97,370.4 -7.83,0 81.74,1443.49 87.01,1459.3 5.27,15.81 323.29,420.84 329.47,453.07 6.19,32.23 434.42,509.37 434.42,509.37 l 345.41,164.97"
         style="fill:#42c76a;fill-opacity:1;fill-rule:nonzero;stroke:none"
         id="path3348"
         inkscape:connector-curvature="0" /><path
         d="m 3708.27,4097.14 c 0,0 692.38,-144.17 1117.24,277.79 0,0 293.7,-774.89 -21.9,-1365.79 l -101.66,-90.13 c 0,0 409.41,-816.88 -372.92,-1196.21 0,0 -580.38,-1433.03 -2044.14,-800.808 0,0 -634.85,246.898 -733.19,1180.668 0,0 828.34,720.34 856.72,756.8 28.38,36.46 506.06,429.85 534.17,472 28.09,42.14 765.68,765.68 765.68,765.68"
         style="fill:#ef2e32;fill-opacity:1;fill-rule:nonzero;stroke:none"
         id="path3350"
         inkscape:connector-curvature="0" /><path
         d="m 3758.31,4091.22 -710.36,497.65 c 0,0 -755.86,934.28 -1635.34,597.1 C 533.125,4848.78 490.938,3953.81 828.141,3334.64 l 688.279,-562.11 c 0,0 -379.17,-892.59 569.16,-581.29 l 34.83,73.06 c 0,0 695.73,-506.37 969.69,273.37 0,0 639.25,-99.51 590.07,508.71 0,0 521.56,392.65 78.14,1044.84"
         style="fill:#4892e7;fill-opacity:1;fill-rule:nonzero;stroke:none"
         id="path3352"
         inkscape:connector-curvature="0" /><path
         d="m 1843.59,3065.23 c 0,0 -79.02,756.51 -595.31,658.71 0,0 -821.8,-566.95 -187.16,-1438.32 0,0 418.97,587.86 598.08,653.37 l 184.39,126.24"
         style="fill:#cccccc;fill-opacity:1;fill-rule:nonzero;stroke:none"
         id="path3354"
         inkscape:connector-curvature="0" /><path
         d="m 2786.37,4006.7 c 0,-214.32 -173.74,-388.06 -388.06,-388.06 -214.33,0 -388.07,173.74 -388.07,388.06 0,214.33 173.74,388.07 388.07,388.07 214.32,0 388.06,-173.74 388.06,-388.07"
         style="fill:#f8ca00;fill-opacity:1;fill-rule:nonzero;stroke:none"
         id="path3356"
         inkscape:connector-curvature="0" /><path
         d="m 1507.91,2143.25 c -4.77,6.1 -9.32,12.55 -13.59,19.44 -39.81,64.19 -48.29,145.43 -48.04,219.33 0.29,80.7 11.25,160.96 22.37,240.75 2.46,17.68 5,35.35 7.5,53.02 0.99,6.98 1.97,13.97 2.93,20.96 0.1,0.77 0.2,1.57 0.32,2.52 3.02,23.92 5.99,48.03 6.12,72.2 0.01,1.82 0.18,3.59 0.3,5.39 -8.23,3.66 -17.72,8.01 -28.43,13.17 -27.24,-23.76 -54.13,-47.9 -80.13,-73 -27.31,-26.36 -54.08,-53.36 -79.33,-81.71 -12.49,-14.03 -24.8,-28.23 -36.55,-42.89 -1.98,-2.44 -3.92,-4.9 -5.88,-7.37 -0.35,-0.47 -0.66,-0.87 -1.08,-1.42 -4.11,-5.56 -8.23,-11.1 -12.2,-16.73 -19.44,-27.61 -37.64,-56.24 -52.69,-86.48 -3.65,-7.32 -7.23,-14.67 -10.55,-22.13 -1.3,-3.3 -2.59,-6.59 -3.81,-9.91 -5.15,-14.22 -9.66,-28.57 -13.54,-43.19 -17.66,-66.55 -106.03,-90.47 -154.25,-40.73 -55.169,56.9 -84.876,134.48 -105.567,209.66 -19.879,72.2 -32.239,146 -46.817,219.37 -8.394,42.22 -18.363,83.63 -23.617,126.48 -5.996,48.96 -3.691,96.81 4.605,145.43 12.262,71.87 41.411,139.31 64.524,208.22 -155.348,231.6 -268.906,555.29 -231.465,997.22 0,0 -263.277,322.9 -354.531,407.66 0,0 -776.676,-501.87 110.992,-1483.64 0,0 -297.5,-577.29 440.476,-1008.8 0,0 -71.363,-729.19 829.78,-771.83 0,0 -230.44,364.88 -187.85,729.01"
         style="fill:#351f17;fill-opacity:1;fill-rule:nonzero;stroke:none"
         id="path3358"
         inkscape:connector-curvature="0" /><path
         d="m 4169.49,1181.96 c 1.63,1.93 3.24,3.86 4.86,5.78 403.98,486.2 166.5,1003.5 166.5,1003.5 0,-752.68 -612.37,-1365.06 -1365.07,-1365.06 -717.85,0 -1308.04,556.98 -1361.15,1261.47 -41.75,23.3 -76.01,56.97 -95.89,103.59 l -106.13,0 c 0,-417.53 162.6,-810.09 457.84,-1105.33 295.24,-295.25 687.79,-457.851 1105.33,-457.851 417.54,0 810.09,162.601 1105.34,457.851 26,26 50.9,52.78 74.82,80.25 4.6,5.25 9.1,10.52 13.55,15.8"
         style="fill:#351f17;fill-opacity:1;fill-rule:nonzero;stroke:none"
         id="path3360"
         inkscape:connector-curvature="0" /><path
         d="m 3521.61,3431.65 c 160.75,-304.44 109.01,-506.87 56.52,-608.15 -12.43,-26.09 -29.13,-51.81 -51.55,-74.88 -0.82,-0.85 -1.29,-1.29 -1.29,-1.29 -17.54,-17.8 -38.49,-34.01 -63.6,-47.48 -94.63,-50.75 -167.94,-63.16 -221.38,-60.27 -65.2,0.7 -168.44,14.24 -237.06,84.59 0,0 -1.91,-266.98 -84.93,-370.89 -42.83,-65.09 -112.99,-115.11 -209.67,-149.19 -134.2,-47.31 -253.3,-38.26 -354,26.92 -76.38,49.42 -116.43,114.87 -119.43,119.88 -42.46,54.76 -87.21,161.06 -87.21,161.06 -27.32,-81.61 -86.58,-163.38 -86.58,-163.38 -0.32,-0.61 -35.39,-63.26 -103.36,-113.13 -91.1,-66.82 -198.91,-80.05 -320.48,-39.31 -55.8,18.7 -91.53,49.73 -112.43,97.63 -60.12,137.71 18.78,371.68 54.25,450.22 l -90.22,40.89 -36.71,16.71 c -0.85,-0.85 -1.72,-1.67 -2.58,-2.51 -11.04,-11.06 -22.01,-22.21 -32.46,-33.83 -5.1,-5.67 -10.22,-11.34 -15.12,-17.2 -1.65,-1.96 -10.36,-13.19 -9.47,-11.75 -12.61,-17.64 -23.83,-36 -32.52,-55.98 -4.71,-10.81 -12.04,-19.58 -20.92,-26.47 -2.85,-10.65 -5.62,-21.61 -8.27,-32.85 -38.37,-162.5 -34.26,-299.08 12.22,-405.98 43.03,-98.94 123,-170.43 231.27,-206.71 71.16,-23.86 136.32,-33.67 195.38,-33.67 133.4,0 235.65,50.01 305.24,101.06 29.4,21.58 54.59,44.44 75.72,66.39 23.89,-23.64 52.79,-48.35 86.91,-71.37 107.79,-72.69 288.39,-140.97 536.64,-53.46 250.02,88.14 341.06,249.87 373.4,370.03 5.9,21.95 10.07,43.26 12.91,63.55 94.63,-20.92 226.94,-15.42 394.48,74.43 94.24,50.53 165.96,130.5 209.27,229.95 162.35,391.91 -242.97,676.44 -242.97,676.44"
         style="fill:#351f17;fill-opacity:1;fill-rule:nonzero;stroke:none"
         id="path3362"
         inkscape:connector-curvature="0" /><path
         d="M 5065.46,930.449 C 4981.2,1250.61 4564.5,1146.14 4320.49,1386.59 l -13.05,-9.99 c -7.27,12.63 -10.8,19.92 -10.8,19.92 0,0 -29.95,-38.71 -90.52,-97.43 L 3874.05,1045.03 C 3619.86,890.602 3248.91,740.949 2755.32,727.98 c 0,0 29.55,-764.5894 464.46,-726.62062 0,0 211.99,5.73046 253.5,233.57062 0,0 86.48,-265.7503 439.14,-208.3909 352.68,57.3711 319.68,317.8009 245.09,456.3399 0,0 249.92,-275.449 657.92,-121.777 72.21,27.207 126.16,61.628 164.43,100.48 0.01,0 0.06,-0.012 0.06,-0.012 0,0 169.8,148.7 85.54,468.879"
         style="fill:#351f17;fill-opacity:1;fill-rule:nonzero;stroke:none"
         id="path3364"
         inkscape:connector-curvature="0" /><path
         d="m 4163.86,1231.34 -26.42,196.35 c 495.63,66.67 841.65,231.53 1028.46,490.05 193.8,268.16 143.53,550.91 143.01,553.74 l 194.44,37.97 c 2.91,-14.73 68.56,-364.66 -174.02,-703.79 -219.29,-306.57 -611.41,-499.8 -1165.47,-574.32"
         style="fill:#351f17;fill-opacity:1;fill-rule:nonzero;stroke:none"
         id="path3366"
         inkscape:connector-curvature="0" /><path
         d="m 5716.07,3778.22 -41.92,-17.18 c -13.73,-20.23 -28.82,-39.72 -45.26,-58.59 -22.73,-26.08 -47.24,-50.43 -72.05,-74.49 26.43,-97.01 61.35,-279.16 31.1,-494.49 -60.52,-430.98 -344.87,-776.37 -845.13,-1026.61 0,0 374.41,-52.09 671.01,243.32 0,0 -0.22,-0.58 -0.64,-1.65 45.75,48.54 87.6,98.89 125.34,151.07 132.12,182.65 214.75,386.64 245.61,606.31 52.36,372.78 -63.12,660.26 -68.06,672.31"
         style="fill:#351f17;fill-opacity:1;fill-rule:nonzero;stroke:none"
         id="path3368"
         inkscape:connector-curvature="0" /><path
         d="m 2344.92,2954.74 c -150.18,-68.31 -310.71,-102.94 -477.12,-102.94 -95.97,0 -189.19,11.87 -278.38,34.06 -53.61,-55.11 -110.22,-107.09 -169.18,-156.58 141.94,-49.66 292.74,-75.59 447.56,-75.59 9.77,0 19.51,0.18 29.25,0.38 524.29,13.4 639.46,411.16 639.46,411.16 -60.14,-42.85 -124.6,-80.03 -191.59,-110.49"
         style="fill:#351f17;fill-opacity:1;fill-rule:nonzero;stroke:none"
         id="path3370"
         inkscape:connector-curvature="0" /><path
         d="m 5650.44,5028.9 -66.03,50.56 -61.24,-56.24 c -7.59,-6.97 -766.33,-698.57 -1391.85,-829.41 -585.79,-122.52 -1167.93,605.44 -1184.42,626.3 -123.31,163.13 -284.53,298.28 -466.28,390.86 -190.95,97.25 -397.13,146.57 -612.82,146.57 -361.12,0 -700.62,-140.63 -955.968,-395.97 -255.348,-255.35 -395.969,-594.84 -395.969,-955.95 0,-323.24 112.75,-629.11 319.508,-872.85 5.777,47.63 19.711,94.31 40.961,139.7 12.422,26.54 27.152,51.89 43.43,76.29 -129.649,186.56 -205.782,412.96 -205.782,656.86 0,636.21 517.6,1153.81 1153.82,1153.81 365.28,0 701.17,-167.45 921.54,-459.41 l 0.87,-1.14 c 6.68,-8.59 166.36,-212.42 411.86,-400.96 146.28,-112.34 293.08,-196.02 436.28,-248.73 184.97,-68.08 364.46,-84.66 533.54,-49.3 287.18,60.07 624.91,226.48 1003.81,494.6 183.79,130.05 330.82,251.61 412.11,321.6 74.62,-81.67 194.38,-251.37 190.17,-496.03 -3.09,-179.24 -72.29,-370.1 -205.65,-567.27 -169.78,-251.03 -443.58,-512.15 -813.78,-776.11 0,0 392.82,6.04 761.47,394.63 83.63,90.78 155.92,181.03 216.42,270.48 155.25,229.51 235.87,456.57 239.62,674.86 7.78,451.49 -312.02,701.81 -325.62,712.25"
         style="fill:#351f17;fill-opacity:1;fill-rule:nonzero;stroke:none"
         id="path3372"
         inkscape:connector-curvature="0" /><path
         d="m 4902.49,4374.93 c 0,0 479.28,-1406.48 -516.39,-1694.41 0,0 750.74,450.41 315.85,1593.03 l 200.54,101.38"
         style="fill:#351f17;fill-opacity:1;fill-rule:nonzero;stroke:none"
         id="path3374"
         inkscape:connector-curvature="0" /><path
         d="m 4730.28,2942.76 c 0,0 421.05,-785.39 -221.67,-1109.81 0,0 423.67,337.7 79.91,990.98 l 141.76,118.83"
         style="fill:#351f17;fill-opacity:1;fill-rule:nonzero;stroke:none"
         id="path3376"
         inkscape:connector-curvature="0" /><path
         d="m 1310,3701.72 c -245.34,-169.44 -388.922,-375.78 -426.879,-613.57 -49.336,-309.06 89.77,-602.08 178.939,-751.72 132.57,314.06 483.49,616.26 630.79,689.61 43.86,21.84 67.52,49.78 72.32,85.41 3.65,27 -4.58,50.16 -5.77,53.29 l -2.46,5.32 -0.81,4.64 c -51.73,216.9 -146.58,376.64 -274.34,461.93 -75.12,50.15 -141.89,62.21 -171.79,65.09 z m -194.9,-1650.19 -82.25,105.35 c -3.61,4.62 -89.354,115.25 -165.92,286.71 -102.211,228.9 -138.899,458.53 -106.086,664.07 44.461,278.47 211.621,516.75 496.856,708.24 l 14.49,9.73 17.92,0.74 c 0,0 1.41,0.06 4.12,0.06 21.08,0 132.54,-4.18 256.32,-86.83 155.53,-103.84 264.87,-282.8 325.03,-532.02 5.66,-15.29 18.02,-55.52 13.26,-104.45 -5.5,-56.5 -34.4,-134.95 -140.79,-187.93 -154.56,-76.98 -543.71,-433.63 -605.79,-732.81 l -27.16,-130.86"
         style="fill:#351f17;fill-opacity:1;fill-rule:nonzero;stroke:none"
         id="path3378"
         inkscape:connector-curvature="0" /><path
         d="m 1038.98,2264.3 c 0,0 36.42,543.75 390.13,742.36 0,0 196.7,126.73 203.39,274.11 0,0 58.74,-201.07 -174.63,-333.44 -233.38,-132.39 -309.59,-438.42 -326.21,-593.78 l -92.68,-89.25"
         style="fill:#351f17;fill-opacity:1;fill-rule:nonzero;stroke:none"
         id="path3380"
         inkscape:connector-curvature="0" /><path
         d="m 2676.2,4006.7 c 0,-153.48 -124.42,-277.89 -277.9,-277.89 -153.48,0 -277.89,124.41 -277.89,277.89 0,153.48 124.41,277.9 277.89,277.9 153.48,0 277.9,-124.42 277.9,-277.9"
         style="fill:#351f17;fill-opacity:1;fill-rule:nonzero;stroke:none"
         id="path3382"
         inkscape:connector-curvature="0" /><path
         d="m 2448.97,4074.07 c 0,-65.54 -53.13,-118.67 -118.67,-118.67 -65.55,0 -118.68,53.13 -118.68,118.67 0,65.55 53.13,118.68 118.68,118.68 65.54,0 118.67,-53.13 118.67,-118.68"
         style="fill:#ffffff;fill-opacity:1;fill-rule:nonzero;stroke:none"
         id="path3384"
         inkscape:connector-curvature="0" /><path
         d="m 3802.95,4074.07 c 0,0 425.14,-450.61 59.86,-793.3 0,0 149.7,567.94 -357.17,825.63 l 55.11,60.71 242.2,-93.04"
         style="fill:#351f17;fill-opacity:1;fill-rule:nonzero;stroke:none"
         id="path3386"
         inkscape:connector-curvature="0" /></g></g></svg>